<?xml version="1.0" encoding="UTF-8"?>
<svg width="256px" height="64" viewBox="0 0 126 31" version="1.1" xmlns="http://www.w3.org/2000/svg" xmlns:xlink="http://www.w3.org/1999/xlink">
    <!-- Generator: Sketch 52.6 (67491) - http://www.bohemiancoding.com/sketch -->
    <title>Group 16</title>
    <desc>Created with Sketch.</desc>
    <defs>
        <polygon id="path-1" points="0 30.8936275 125.845733 30.8936275 125.845733 0 0 0"></polygon>
    </defs>
    <g id="Welcome" stroke="none" stroke-width="1" fill="none" fill-rule="evenodd">
        <g id="Home_v4@2x" transform="translate(-657.000000, -5419.000000)">
            <g id="Group-20" transform="translate(493.000000, 5419.000000)">
                <g id="Group-16" transform="translate(164.000000, 0.000000)">
                    <path d="M32.9354076,15.4466314 C32.9354076,10.5589647 36.63662,7.09365098 41.6772215,7.09365098 C44.6061952,7.09365098 46.9680186,8.17196471 48.5118945,10.1228373 L45.6508826,12.7386902 C44.6516033,11.5227 43.4255842,10.8571118 41.9042621,10.8571118 C39.2931451,10.8571118 37.4765198,12.692798 37.4765198,15.4466314 C37.4765198,18.2007686 39.2931451,20.036151 41.9042621,20.036151 C43.4255842,20.036151 44.6516033,19.3711706 45.6508826,18.1548765 L48.5118945,20.7707294 C46.9680186,22.721298 44.6061952,23.7999157 41.6772215,23.7999157 C36.63662,23.7999157 32.9354076,20.334602 32.9354076,15.4466314" id="Fill-1" fill="#244260"></path>
                    <polygon id="Fill-3" fill="#244260" points="65.0634229 7.41498725 65.0634229 23.4784578 60.5680196 23.4784578 60.5680196 17.2137225 54.4373227 17.2137225 54.4373227 23.4784578 49.9413179 23.4784578 49.9413179 7.41498725 54.4373227 7.41498725 54.4373227 13.4502618 60.5680196 13.4502618 60.5680196 7.41498725"></polygon>
                    <path d="M77.006599,17.0070559 L74.9632339,11.8668304 L72.919568,17.0070559 L77.006599,17.0070559 Z M78.3237351,20.3574873 L71.602432,20.3574873 L70.3538592,23.4784578 L65.7673389,23.4784578 L72.7833437,7.41498725 L77.2110859,7.41498725 L84.2499451,23.4784578 L79.5726086,23.4784578 L78.3237351,20.3574873 Z" id="Fill-5" fill="#244260"></path>
                    <mask id="mask-2" fill="white">
                        <use xlink:href="#path-1"></use>
                    </mask>
                    <g id="Clip-8"></g>
                    <polygon id="Fill-7" fill="#244260" mask="url(#mask-2)" points="84.9531695 23.478549 89.4491742 23.478549 89.4491742 7.41507843 84.9531695 7.41507843"></polygon>
                    <path d="M104.389376,15.4466314 C104.389376,12.6700039 102.504488,10.8571118 100.097858,10.8571118 C97.6912282,10.8571118 95.8063403,12.6700039 95.8063403,15.4466314 C95.8063403,18.2235627 97.6912282,20.036151 100.097858,20.036151 C102.504488,20.036151 104.389376,18.2235627 104.389376,15.4466314 M91.2646267,15.4466314 C91.2646267,10.6279549 95.0118487,7.09365098 100.097858,7.09365098 C105.183868,7.09365098 108.930188,10.6279549 108.930188,15.4466314 C108.930188,20.2659157 105.183868,23.7999157 100.097858,23.7999157 C95.0118487,23.7999157 91.2646267,20.2659157 91.2646267,15.4466314" id="Fill-9" fill="#244260" mask="url(#mask-2)"></path>
                    <polygon id="Fill-10" fill="#244260" mask="url(#mask-2)" points="125.845642 7.41498725 125.845642 23.4784578 122.144731 23.4784578 115.128726 14.9191147 115.128726 23.4784578 110.723537 23.4784578 110.723537 7.41498725 114.424449 7.41498725 121.441055 15.9746343 121.441055 7.41498725"></polygon>
                    <path d="M14.7391432,23.3235186 C10.5318258,23.3235186 7.10907637,19.8639794 7.10907637,15.6121167 C7.10907637,11.35995 10.5318258,7.90041078 14.7391432,7.90041078 C16.7103365,7.90041078 18.5810907,8.65778333 20.0067852,10.0330284 C20.6665561,10.6697441 20.6909141,11.7264794 20.0612148,12.3935873 C19.4315155,13.0603912 18.3856253,13.0850088 17.7258544,12.4485971 C16.9175298,11.6687343 15.8569045,11.2395971 14.7391432,11.2395971 C12.3535632,11.2395971 10.4127422,13.2011069 10.4127422,15.6121167 C10.4127422,18.0231265 12.3535632,19.9846363 14.7391432,19.9846363 C15.8947947,19.9846363 16.9812816,19.5296657 17.798327,18.7039108 C18.4433628,18.051999 19.489253,18.051999 20.1342888,18.7039108 C20.7796253,19.3555186 20.7796253,20.4128618 20.1342888,21.0647735 C18.6932578,22.5211657 16.7770955,23.3235186 14.7391432,23.3235186" id="Fill-11" fill="#2C80FF" mask="url(#mask-2)"></path>
                    <path d="M19.3511943,12.4228549 C18.9283876,12.4228549 18.5055809,12.2599529 18.1832134,11.9338451 C17.5381776,11.2819333 17.5381776,10.2248941 18.1832134,9.57298235 L22.9967742,4.70841373 C23.64181,4.05650196 24.6877002,4.05650196 25.332736,4.70841373 C25.9777718,5.36032549 25.9777718,6.41736471 25.332736,7.06927647 L20.5191752,11.9338451 C20.1968076,12.259649 19.774001,12.4228549 19.3511943,12.4228549" id="Fill-12" fill="#2C80FF" mask="url(#mask-2)"></path>
                    <path d="M11.067431,30.7571363 C10.9269967,30.7571363 10.7841566,30.738901 10.6419179,30.7006069 C5.76701098,29.3907049 1.82582721,25.7445578 0.100018138,20.9477637 C-0.211824344,20.0812833 0.230528878,19.1233225 1.08756945,18.8084598 C1.94521146,18.4926853 2.89276754,18.9400578 3.20491074,19.8068422 C4.56174129,23.577901 7.65941671,26.4441853 11.4908391,27.4738716 C12.3725384,27.7109304 12.8972878,28.6251265 12.6627294,29.5162245 C12.4660611,30.2635676 11.7981709,30.7571363 11.067431,30.7571363" id="Fill-13" fill="#14E7AA" mask="url(#mask-2)"></path>
                    <path d="M17.6204835,30.8936578 C16.86298,30.8936578 16.1800539,30.3639225 16.009548,29.5852755 C15.8116768,28.6850598 16.373715,27.7936578 17.2641351,27.5939814 C19.7799251,27.0299029 22.0166506,25.692648 23.732536,23.7259716 C24.336073,23.03455 25.3801589,22.9682951 26.0639871,23.5782657 C26.7484167,24.1882363 26.8136721,25.2428441 26.2101351,25.9345696 C24.0287413,28.4346284 21.1824644,30.1356775 17.9798391,30.8535402 C17.859252,30.8805892 17.7389656,30.8936578 17.6204835,30.8936578" id="Fill-14" fill="#2C80FF" mask="url(#mask-2)"></path>
                    <path d="M1.70484916,12.3728598 C1.51148878,12.3728598 1.31512124,12.3382127 1.12326444,12.2655755 C0.269531742,11.9409873 -0.16229642,10.9781637 0.158868258,10.1150265 C1.25377518,7.17397745 3.18106396,4.65902647 5.73233842,2.84218333 C8.34315465,0.982791176 11.4170735,-9.11764706e-05 14.6212024,-9.11764706e-05 C16.5075938,-9.11764706e-05 18.3509828,0.339997059 20.1005484,1.01105588 C22.1354936,1.79152647 23.9542239,2.97651667 25.5056177,4.53411471 C26.1530592,5.1835951 26.1566678,6.24063431 25.513737,6.89497745 C24.8708062,7.54901667 23.8252167,7.55266373 23.1777752,6.90287941 C21.957169,5.67807549 20.5275652,4.74594804 18.9283575,4.13293824 C17.5546869,3.60593824 16.1055365,3.33879118 14.6212024,3.33879118 C12.1021045,3.33879118 9.68645298,4.11105588 7.63526921,5.57170294 C5.62768926,7.00135 4.11177995,8.97896765 3.25113079,11.290899 C3.00183723,11.9601343 2.37273938,12.3728598 1.70484916,12.3728598" id="Fill-15" fill="#2C80FF" mask="url(#mask-2)"></path>
                </g>
            </g>
        </g>
    </g>
</svg>
